<svg id="er0X3hBD2w81" xmlns="http://www.w3.org/2000/svg" xmlns:xlink="http://www.w3.org/1999/xlink" viewBox="0 0 300 300" shape-rendering="geometricPrecision" text-rendering="geometricPrecision"><defs><linearGradient id="er0X3hBD2w83-stroke" x1="0" y1="0.5" x2="1.942857" y2="-1.056604" spreadMethod="pad" gradientUnits="objectBoundingBox" gradientTransform="matrix(1 0 0 1 0 0)"><stop id="er0X3hBD2w83-stroke-0" offset="0%" stop-color="rgb(0,0,0)"/><stop id="er0X3hBD2w83-stroke-1" offset="100%" stop-color="rgb(255,255,255)"/></linearGradient><linearGradient id="er0X3hBD2w84-stroke" x1="0" y1="0.5" x2="1" y2="0.5" spreadMethod="pad" gradientUnits="objectBoundingBox" gradientTransform="matrix(1 0 0 1 0 0)"><stop id="er0X3hBD2w84-stroke-0" offset="0%" stop-color="rgb(255,102,110)"/><stop id="er0X3hBD2w84-stroke-1" offset="100%" stop-color="rgb(255,255,255)"/></linearGradient><linearGradient id="er0X3hBD2w85-fill" x1="0.191826" y1="0.616969" x2="1.184726" y2="-0.181958" spreadMethod="pad" gradientUnits="objectBoundingBox" gradientTransform="matrix(1 0 0 1 0 0)"><stop id="er0X3hBD2w85-fill-0" offset="0%" stop-color="rgb(197,218,6)"/><stop id="er0X3hBD2w85-fill-1" offset="100%" stop-color="rgb(255,255,255)"/></linearGradient><linearGradient id="er0X3hBD2w86-fill" x1="0.5" y1="0.76189" x2="1.932518" y2="0.5" spreadMethod="pad" gradientUnits="objectBoundingBox" gradientTransform="matrix(1 0 0 1 0 0)"><stop id="er0X3hBD2w86-fill-0" offset="0%" stop-color="rgb(111,206,50)"/><stop id="er0X3hBD2w86-fill-1" offset="100%" stop-color="rgb(255,255,255)"/></linearGradient><linearGradient id="er0X3hBD2w87-fill" x1="0.616168" y1="0.347311" x2="1.145039" y2="-0.305378" spreadMethod="pad" gradientUnits="objectBoundingBox" gradientTransform="matrix(1 0 0 1 0 0)"><stop id="er0X3hBD2w87-fill-0" offset="0%" stop-color="rgb(14,216,226)"/><stop id="er0X3hBD2w87-fill-1" offset="100%" stop-color="rgb(255,255,255)"/></linearGradient><linearGradient id="er0X3hBD2w88-fill" x1="0.5" y1="0.5" x2="1" y2="0.5" spreadMethod="pad" gradientUnits="objectBoundingBox" gradientTransform="matrix(1 0 0 1 0 0)"><stop id="er0X3hBD2w88-fill-0" offset="0%" stop-color="rgb(239,219,37)"/><stop id="er0X3hBD2w88-fill-1" offset="100%" stop-color="rgb(255,255,255)"/></linearGradient><linearGradient id="er0X3hBD2w89-fill" x1="-1.866437" y1="4.247907" x2="2.90941" y2="-3.154881" spreadMethod="pad" gradientUnits="objectBoundingBox" gradientTransform="matrix(1 0 0 1 0 0)"><stop id="er0X3hBD2w89-fill-0" offset="0%" stop-color="rgb(0,0,0)"/><stop id="er0X3hBD2w89-fill-1" offset="100%" stop-color="rgb(255,255,255)"/></linearGradient></defs><g id="er0X3hBD2w82" transform="matrix(1 0 0 1 -92.677711 -176.389602)"><path id="er0X3hBD2w83" d="M270.093158,342.906686L248.021118,376.330062" transform="matrix(0.960986 0.276599 -0.276599 0.960986 102.009326 -61.408293)" fill="none" stroke="url(#er0X3hBD2w83-stroke)" stroke-width="7" stroke-linecap="round"/><path id="er0X3hBD2w84" d="M237.924241,321.880801Q203.108733,352.679134,194.628033,359.374424" transform="matrix(1 0 0 1 11.981964 4.414409)" fill="none" stroke="url(#er0X3hBD2w84-stroke)" stroke-width="11" stroke-linecap="round"/><path id="er0X3hBD2w85" d="M234.651491,329.318644L228.581858,341.732437L218.602185,352.896213L214.463269,356.868994L206.085484,368.357326L206.085484,375.771223L213.85137,365.516083L218.602185,361.996564L224.251431,361.996564L232.152921,356.775265L246.569545,348.221905L234.651491,348.221904L234.651491,329.318644Z" transform="matrix(0.613424 0 0 0.722308 90.730246 96.504445)" fill="url(#er0X3hBD2w85-fill)" stroke="none" stroke-width="1.28"/><path id="er0X3hBD2w86" d="M234.651493,333.265313L213.851372,352.896217L234.651492,348.221906L234.651493,333.265313Z" transform="matrix(1 0 0 1 0.000001 -18.903258)" fill="url(#er0X3hBD2w86-fill)" stroke="none" stroke-width="1.28"/><path id="er0X3hBD2w87" d="M239.558509,348.221909L232.325986,356.868996L226.327515,367.495175L218.602185,375.771224L232.325986,367.495175L239.558509,357.790087L246.569545,352.896214L254.047985,348.221905L239.558509,348.221909Z" transform="matrix(1 0 0 1 0.000003 0.000003)" fill="url(#er0X3hBD2w87-fill)" stroke="none" stroke-width="1.28"/><path id="er0X3hBD2w88" d="M234.651493,316.704797L213.851373,333.265313L234.651493,339.808952L234.651493,316.704797Z" transform="matrix(1 0 0 1 0 -39.696839)" fill="url(#er0X3hBD2w88-fill)" stroke="none" stroke-width="1.28"/><path id="er0X3hBD2w89" d="M271.808499,348.221912L246.569548,375.771225L254.047988,348.221906L271.808499,348.221912Z" transform="matrix(1 0 0 1 6.936927 0.000002)" fill="url(#er0X3hBD2w89-fill)" stroke="none" stroke-width="1.28"/></g></svg>