<svg id="ehSBOPsnv151" xmlns="http://www.w3.org/2000/svg" xmlns:xlink="http://www.w3.org/1999/xlink" viewBox="0 0 180 180" shape-rendering="geometricPrecision" text-rendering="geometricPrecision" width="180" height="180"><defs><linearGradient id="ehSBOPsnv156-fill" x1="0.333477" y1="0.956353" x2="0.6681" y2="0.21099" spreadMethod="pad" gradientUnits="objectBoundingBox" gradientTransform="matrix(1 0 0 1 0 0)"><stop id="ehSBOPsnv156-fill-0" offset="0%" stop-color="rgb(255,0,0)"/><stop id="ehSBOPsnv156-fill-1" offset="10.5061%" stop-color="rgb(255,0,0)"/><stop id="ehSBOPsnv156-fill-2" offset="17%" stop-color="rgb(253,102,35)"/><stop id="ehSBOPsnv156-fill-3" offset="24%" stop-color="rgb(248,253,49)"/><stop id="ehSBOPsnv156-fill-4" offset="34%" stop-color="rgb(164,253,43)"/><stop id="ehSBOPsnv156-fill-5" offset="42.0259%" stop-color="rgb(67,253,38)"/><stop id="ehSBOPsnv156-fill-6" offset="51%" stop-color="rgb(32,253,147)"/><stop id="ehSBOPsnv156-fill-7" offset="59%" stop-color="rgb(31,246,211)"/><stop id="ehSBOPsnv156-fill-8" offset="67%" stop-color="rgb(36,224,181)"/><stop id="ehSBOPsnv156-fill-9" offset="74.3535%" stop-color="rgb(46,182,178)"/><stop id="ehSBOPsnv156-fill-10" offset="83.6207%" stop-color="rgb(46,116,170)"/><stop id="ehSBOPsnv156-fill-11" offset="89.0427%" stop-color="rgb(54,61,159)"/><stop id="ehSBOPsnv156-fill-12" offset="94.9193%" stop-color="rgb(83,56,171)"/><stop id="ehSBOPsnv156-fill-13" offset="100%" stop-color="rgb(123,58,180)"/></linearGradient><linearGradient id="ehSBOPsnv158-fill" x1="0.258358" y1="0.884828" x2="0.203932" y2="0.167323" spreadMethod="pad" gradientUnits="objectBoundingBox" gradientTransform="matrix(1 0 0 1 0 0)"><stop id="ehSBOPsnv158-fill-0" offset="0%" stop-color="rgb(255,0,0)"/><stop id="ehSBOPsnv158-fill-1" offset="10.5061%" stop-color="rgb(255,0,0)"/><stop id="ehSBOPsnv158-fill-2" offset="17%" stop-color="rgb(253,102,35)"/><stop id="ehSBOPsnv158-fill-3" offset="24%" stop-color="rgb(248,253,49)"/><stop id="ehSBOPsnv158-fill-4" offset="34%" stop-color="rgb(164,253,43)"/><stop id="ehSBOPsnv158-fill-5" offset="42.0259%" stop-color="rgb(67,253,38)"/><stop id="ehSBOPsnv158-fill-6" offset="51%" stop-color="rgb(32,253,147)"/><stop id="ehSBOPsnv158-fill-7" offset="59%" stop-color="rgb(31,246,211)"/><stop id="ehSBOPsnv158-fill-8" offset="67%" stop-color="rgb(36,224,181)"/><stop id="ehSBOPsnv158-fill-9" offset="74.3535%" stop-color="rgb(46,182,178)"/><stop id="ehSBOPsnv158-fill-10" offset="83.6207%" stop-color="rgb(46,116,170)"/><stop id="ehSBOPsnv158-fill-11" offset="89.0427%" stop-color="rgb(54,61,159)"/><stop id="ehSBOPsnv158-fill-12" offset="94.9193%" stop-color="rgb(83,56,171)"/><stop id="ehSBOPsnv158-fill-13" offset="100%" stop-color="rgb(123,58,180)"/></linearGradient><linearGradient id="ehSBOPsnv1510-fill" x1="-0.149779" y1="0.845813" x2="-0.045252" y2="0.089521" spreadMethod="pad" gradientUnits="objectBoundingBox" gradientTransform="matrix(1 0 0 1 0 0)"><stop id="ehSBOPsnv1510-fill-0" offset="0%" stop-color="rgb(255,0,0)"/><stop id="ehSBOPsnv1510-fill-1" offset="10.5061%" stop-color="rgb(255,0,0)"/><stop id="ehSBOPsnv1510-fill-2" offset="17%" stop-color="rgb(253,102,35)"/><stop id="ehSBOPsnv1510-fill-3" offset="24%" stop-color="rgb(248,253,49)"/><stop id="ehSBOPsnv1510-fill-4" offset="34%" stop-color="rgb(164,253,43)"/><stop id="ehSBOPsnv1510-fill-5" offset="42.0259%" stop-color="rgb(67,253,38)"/><stop id="ehSBOPsnv1510-fill-6" offset="51%" stop-color="rgb(32,253,147)"/><stop id="ehSBOPsnv1510-fill-7" offset="59%" stop-color="rgb(31,246,211)"/><stop id="ehSBOPsnv1510-fill-8" offset="67%" stop-color="rgb(36,224,181)"/><stop id="ehSBOPsnv1510-fill-9" offset="74.3535%" stop-color="rgb(46,182,178)"/><stop id="ehSBOPsnv1510-fill-10" offset="83.6207%" stop-color="rgb(46,116,170)"/><stop id="ehSBOPsnv1510-fill-11" offset="89.0427%" stop-color="rgb(54,61,159)"/><stop id="ehSBOPsnv1510-fill-12" offset="94.9193%" stop-color="rgb(83,56,171)"/><stop id="ehSBOPsnv1510-fill-13" offset="100%" stop-color="rgb(123,58,180)"/></linearGradient><linearGradient id="ehSBOPsnv1512-fill" x1="0.07102" y1="0.861133" x2="0.203932" y2="0.167323" spreadMethod="pad" gradientUnits="objectBoundingBox" gradientTransform="matrix(1 0 0 1 0 0)"><stop id="ehSBOPsnv1512-fill-0" offset="0%" stop-color="rgb(255,0,0)"/><stop id="ehSBOPsnv1512-fill-1" offset="10.3886%" stop-color="rgb(255,0,0)"/><stop id="ehSBOPsnv1512-fill-2" offset="17%" stop-color="rgb(253,102,35)"/><stop id="ehSBOPsnv1512-fill-3" offset="24%" stop-color="rgb(248,253,49)"/><stop id="ehSBOPsnv1512-fill-4" offset="34%" stop-color="rgb(164,253,43)"/><stop id="ehSBOPsnv1512-fill-5" offset="42.0259%" stop-color="rgb(67,253,38)"/><stop id="ehSBOPsnv1512-fill-6" offset="51%" stop-color="rgb(32,253,147)"/><stop id="ehSBOPsnv1512-fill-7" offset="59%" stop-color="rgb(31,246,211)"/><stop id="ehSBOPsnv1512-fill-8" offset="67%" stop-color="rgb(36,224,181)"/><stop id="ehSBOPsnv1512-fill-9" offset="74.3535%" stop-color="rgb(46,182,178)"/><stop id="ehSBOPsnv1512-fill-10" offset="83.6207%" stop-color="rgb(46,116,170)"/><stop id="ehSBOPsnv1512-fill-11" offset="89.0427%" stop-color="rgb(54,61,159)"/><stop id="ehSBOPsnv1512-fill-12" offset="94.9193%" stop-color="rgb(83,56,171)"/><stop id="ehSBOPsnv1512-fill-13" offset="100%" stop-color="rgb(123,58,180)"/></linearGradient><linearGradient id="ehSBOPsnv1514-fill" x1="0.07102" y1="0.861133" x2="0.203932" y2="0.167323" spreadMethod="pad" gradientUnits="objectBoundingBox" gradientTransform="matrix(1 0 0 1 0 0)"><stop id="ehSBOPsnv1514-fill-0" offset="0%" stop-color="rgb(255,0,0)"/><stop id="ehSBOPsnv1514-fill-1" offset="10.3886%" stop-color="rgb(255,0,0)"/><stop id="ehSBOPsnv1514-fill-2" offset="17%" stop-color="rgb(253,102,35)"/><stop id="ehSBOPsnv1514-fill-3" offset="24%" stop-color="rgb(248,253,49)"/><stop id="ehSBOPsnv1514-fill-4" offset="34%" stop-color="rgb(164,253,43)"/><stop id="ehSBOPsnv1514-fill-5" offset="42.0259%" stop-color="rgb(67,253,38)"/><stop id="ehSBOPsnv1514-fill-6" offset="51%" stop-color="rgb(32,253,147)"/><stop id="ehSBOPsnv1514-fill-7" offset="59%" stop-color="rgb(31,246,211)"/><stop id="ehSBOPsnv1514-fill-8" offset="67%" stop-color="rgb(36,224,181)"/><stop id="ehSBOPsnv1514-fill-9" offset="74.3535%" stop-color="rgb(46,182,178)"/><stop id="ehSBOPsnv1514-fill-10" offset="83.6207%" stop-color="rgb(46,116,170)"/><stop id="ehSBOPsnv1514-fill-11" offset="89.0427%" stop-color="rgb(54,61,159)"/><stop id="ehSBOPsnv1514-fill-12" offset="94.9193%" stop-color="rgb(83,56,171)"/><stop id="ehSBOPsnv1514-fill-13" offset="100%" stop-color="rgb(123,58,180)"/></linearGradient><linearGradient id="ehSBOPsnv1516-fill" x1="0.07102" y1="0.861133" x2="0.203932" y2="0.167323" spreadMethod="pad" gradientUnits="objectBoundingBox" gradientTransform="matrix(1 0 0 1 0 0)"><stop id="ehSBOPsnv1516-fill-0" offset="0%" stop-color="rgb(255,0,0)"/><stop id="ehSBOPsnv1516-fill-1" offset="10.3886%" stop-color="rgb(255,0,0)"/><stop id="ehSBOPsnv1516-fill-2" offset="17%" stop-color="rgb(253,102,35)"/><stop id="ehSBOPsnv1516-fill-3" offset="24%" stop-color="rgb(248,253,49)"/><stop id="ehSBOPsnv1516-fill-4" offset="34%" stop-color="rgb(164,253,43)"/><stop id="ehSBOPsnv1516-fill-5" offset="42.0259%" stop-color="rgb(67,253,38)"/><stop id="ehSBOPsnv1516-fill-6" offset="51%" stop-color="rgb(32,253,147)"/><stop id="ehSBOPsnv1516-fill-7" offset="59%" stop-color="rgb(31,246,211)"/><stop id="ehSBOPsnv1516-fill-8" offset="67%" stop-color="rgb(36,224,181)"/><stop id="ehSBOPsnv1516-fill-9" offset="74.3535%" stop-color="rgb(46,182,178)"/><stop id="ehSBOPsnv1516-fill-10" offset="83.6207%" stop-color="rgb(46,116,170)"/><stop id="ehSBOPsnv1516-fill-11" offset="89.0427%" stop-color="rgb(54,61,159)"/><stop id="ehSBOPsnv1516-fill-12" offset="94.9193%" stop-color="rgb(83,56,171)"/><stop id="ehSBOPsnv1516-fill-13" offset="100%" stop-color="rgb(123,58,180)"/></linearGradient><filter id="ehSBOPsnv1517-filter" x="-400%" width="600%" y="-400%" height="600%"><feGaussianBlur id="ehSBOPsnv1517-filter-blur-0" stdDeviation="1,1" result="result"/></filter><filter id="ehSBOPsnv1518-filter" x="-400%" width="600%" y="-400%" height="600%"><feGaussianBlur id="ehSBOPsnv1518-filter-blur-0" stdDeviation="0,0" result="result"/></filter><filter id="ehSBOPsnv1521-filter" x="-400%" width="600%" y="-400%" height="600%"><feGaussianBlur id="ehSBOPsnv1521-filter-blur-0" stdDeviation="2,1" result="result"/></filter></defs><g id="ehSBOPsnv152" transform="matrix(1 0 0 1 0 16.956377)"><g id="ehSBOPsnv153" transform="matrix(-0.056271 -1.611378 1.639852 -0.057265 -58.026502 223.517258)"><ellipse id="ehSBOPsnv154" rx="38.5" ry="38.5" transform="matrix(1 0 0 1 90 90.591943)" fill="rgb(2,2,2)" stroke="none" stroke-width="0"/><g id="ehSBOPsnv155" transform="matrix(-0.325568 0.945519 -0.945519 -0.325568 205.905318 33.13484)"><path id="ehSBOPsnv156" d="M24.195932,31.906929L42.066928,17.984097L48.02946,14.007839L57.470139,8.291974L51.063373,18.404711L44.118579,30.076467L37.827985,40.86684L31.584015,53.13053L27.477196,63.000287L23.929959,73.01724L20.979125,81.842527L19.043735,89.55618L17.533795,97.259174L16.523542,105.360933L15.433245,113.958641L14.136806,101.006541L14.405171,91.256484L14.603909,80.840789L16.093215,70.117953L17.690581,58.31033L19.963608,46.485775L23.92905,32.048881" transform="matrix(-0.285317 -0.092705 0.092705 -0.285317 113.538685 136.683479)" fill="url(#ehSBOPsnv156-fill)" stroke="none" stroke-width="0.36"/></g><g id="ehSBOPsnv157" transform="matrix(0.615661 0.788011 -0.788011 0.615661 106.814752 -36.226824)"><path id="ehSBOPsnv158" d="M24.195932,31.906929L42.066928,17.984097L48.02946,14.007839L57.470139,8.291974L51.063373,18.404711L44.118579,30.076467L37.827985,40.86684L31.584015,53.13053L27.477196,63.000287L23.929959,73.01724L20.979125,81.842527L19.043735,89.55618L17.533795,97.259174L16.523542,105.360933L15.433245,113.958641L14.136806,101.006541L14.405171,91.256484L14.603909,80.840789L16.093215,70.117953L17.690581,58.31033L19.963608,46.485775L23.92905,32.048881" transform="matrix(-0.288379 -0.082691 0.082691 -0.288379 111.533074 136.820558)" fill="url(#ehSBOPsnv158-fill)" stroke="none" stroke-width="0.36"/></g><g id="ehSBOPsnv159" transform="matrix(0.990268 -0.139173 0.139173 0.990268 -11.639052 13.559474)"><path id="ehSBOPsnv1510" d="M24.195932,31.906929L42.066928,17.984097L48.02946,14.007839L57.470139,8.291974L51.063373,18.404711L44.118579,30.076467L37.827985,40.86684L31.584015,53.13053L27.477196,63.000287L23.929959,73.01724L20.979125,81.842527L19.043735,89.55618L17.533795,97.259174L16.523542,105.360933L15.433245,113.958641L14.136806,101.006541L14.405171,91.256484L14.603909,80.840789L16.093215,70.117953L17.690581,58.31033L19.963608,46.485775L23.92905,32.048881" transform="matrix(-0.285317 -0.092705 0.092705 -0.285317 110.76954 136.584218)" fill="url(#ehSBOPsnv1510-fill)" stroke="none" stroke-width="0.36"/></g><g id="ehSBOPsnv1511" transform="matrix(0.241922 -0.970296 0.970296 0.241922 -19.403767 155.955099)"><path id="ehSBOPsnv1512" d="M24.195932,31.906929L42.066928,17.984097L48.02946,14.007839L57.470139,8.291974L51.063373,18.404711L44.118579,30.076467L37.827985,40.86684L31.584015,53.13053L27.477196,63.000287L23.929959,73.01724L20.979125,81.842527L19.043735,89.55618L17.533795,97.259174L16.523542,105.360933L15.433245,113.958641L14.136806,101.006541L14.405171,91.256484L14.603909,80.840789L16.093215,70.117953L17.690581,58.31033L19.963608,46.485775L23.92905,32.048881" transform="matrix(-0.267302 -0.136197 0.136197 -0.267302 103.602843 139.044133)" fill="url(#ehSBOPsnv1512-fill)" stroke="none" stroke-width="0.36"/></g><g id="ehSBOPsnv1513" transform="matrix(0 -1 1 0 -0.029628 147.135233)"><path id="ehSBOPsnv1514" d="M24.195932,31.906929L42.066928,17.984097L48.02946,14.007839L57.470139,8.291974L51.063373,18.404711L44.118579,30.076467L37.827985,40.86684L31.584015,53.13053L27.477196,63.000287L23.929959,73.01724L20.979125,81.842527L19.043735,89.55618L17.533795,97.259174L16.523542,105.360933L15.433245,113.958641L14.136806,101.006541L14.405171,91.256484L14.603909,80.840789L16.093215,70.117953L17.690581,58.31033L19.963608,46.485775L23.92905,32.048881" transform="matrix(-0.281908 0.102606 -0.102606 -0.281908 101.492326 113.435064)" fill="url(#ehSBOPsnv1514-fill)" stroke="none" stroke-width="0.36"/></g><g id="ehSBOPsnv1515" transform="matrix(-0.224951 -0.97437 0.97437 -0.224951 -13.195104 165.045676)"><path id="ehSBOPsnv1516" d="M24.195932,31.906929L42.066928,17.984097L48.02946,14.007839L57.470139,8.291974L51.063373,18.404711L44.118579,30.076467L37.827985,40.86684L31.584015,53.13053L27.477196,63.000287L23.929959,73.01724L20.979125,81.842527L19.043735,89.55618L17.533795,97.259174L16.523542,105.360933L15.433245,113.958641L14.136806,101.006541L14.405171,91.256484L14.603909,80.840789L16.093215,70.117953L17.690581,58.31033L19.963608,46.485775L23.92905,32.048881" transform="matrix(-0.112382 0.278155 -0.278155 -0.112382 96.759964 99.422155)" fill="url(#ehSBOPsnv1516-fill)" stroke="none" stroke-width="0.36"/></g></g><g id="ehSBOPsnv1519" transform="matrix(1 0 0 1 -1.445831 -17.000008)"><polygon id="ehSBOPsnv1520" points="-1.584869,-18.004145 0.235132,-2.863378 12.415131,6.285855 -1.584869,0.294322 -15.584869,6.285855 -3.40487,-2.863378 -1.584869,-18.004145" transform="matrix(1 0 0 1 90.126424 91.83679)" fill="rgb(255,255,255)" stroke="none" stroke-width="0"/><polygon id="ehSBOPsnv1521" points="-3.454247,-17.993326 -1.953136,-5.554197 9.545753,-10.470826 -0.452026,-2.948326 9.545753,4.574174 -1.953136,-0.342455 -3.454247,12.096674 -4.955358,-0.342455 -16.454247,4.574174 -6.456468,-2.948326 -16.454247,-10.470826 -4.955358,-5.554197 -3.454247,-17.993326" transform="matrix(0.515038 0.857167 -0.857167 0.515038 87.708413 95.414921)" filter="url(#ehSBOPsnv1521-filter)" fill="rgb(253,253,253)" stroke="none" stroke-width="0"/></g><ellipse id="ehSBOPsnv1522" rx="25.706034" ry="4.043645" transform="matrix(1.7 0 0.36397 1 88.706034 151.043645)" fill="rgb(54,57,63)" stroke="none" stroke-width="0"/></g></svg>