<svg id="e3qnAMFyh9U1" xmlns="http://www.w3.org/2000/svg" xmlns:xlink="http://www.w3.org/1999/xlink" viewBox="0 0 180 180" shape-rendering="geometricPrecision" text-rendering="geometricPrecision" width="180" height="180"><defs><linearGradient id="e3qnAMFyh9U5-fill" x1="0.333477" y1="0.956353" x2="0.6681" y2="0.21099" spreadMethod="pad" gradientUnits="objectBoundingBox" gradientTransform="matrix(1 0 0 1 0 0)"><stop id="e3qnAMFyh9U5-fill-0" offset="0%" stop-color="rgb(255,0,0)"/><stop id="e3qnAMFyh9U5-fill-1" offset="10.5061%" stop-color="rgb(255,0,0)"/><stop id="e3qnAMFyh9U5-fill-2" offset="17%" stop-color="rgb(253,102,35)"/><stop id="e3qnAMFyh9U5-fill-3" offset="24%" stop-color="rgb(248,253,49)"/><stop id="e3qnAMFyh9U5-fill-4" offset="34%" stop-color="rgb(164,253,43)"/><stop id="e3qnAMFyh9U5-fill-5" offset="42.0259%" stop-color="rgb(67,253,38)"/><stop id="e3qnAMFyh9U5-fill-6" offset="51%" stop-color="rgb(32,253,147)"/><stop id="e3qnAMFyh9U5-fill-7" offset="59%" stop-color="rgb(31,246,211)"/><stop id="e3qnAMFyh9U5-fill-8" offset="67%" stop-color="rgb(36,224,181)"/><stop id="e3qnAMFyh9U5-fill-9" offset="74.3535%" stop-color="rgb(46,182,178)"/><stop id="e3qnAMFyh9U5-fill-10" offset="83.6207%" stop-color="rgb(46,116,170)"/><stop id="e3qnAMFyh9U5-fill-11" offset="89.0427%" stop-color="rgb(54,61,159)"/><stop id="e3qnAMFyh9U5-fill-12" offset="94.9193%" stop-color="rgb(83,56,171)"/><stop id="e3qnAMFyh9U5-fill-13" offset="100%" stop-color="rgb(123,58,180)"/></linearGradient><linearGradient id="e3qnAMFyh9U7-fill" x1="0.258358" y1="0.884828" x2="0.203932" y2="0.167323" spreadMethod="pad" gradientUnits="objectBoundingBox" gradientTransform="matrix(1 0 0 1 0 0)"><stop id="e3qnAMFyh9U7-fill-0" offset="0%" stop-color="rgb(255,0,0)"/><stop id="e3qnAMFyh9U7-fill-1" offset="10.5061%" stop-color="rgb(255,0,0)"/><stop id="e3qnAMFyh9U7-fill-2" offset="17%" stop-color="rgb(253,102,35)"/><stop id="e3qnAMFyh9U7-fill-3" offset="24%" stop-color="rgb(248,253,49)"/><stop id="e3qnAMFyh9U7-fill-4" offset="34%" stop-color="rgb(164,253,43)"/><stop id="e3qnAMFyh9U7-fill-5" offset="42.0259%" stop-color="rgb(67,253,38)"/><stop id="e3qnAMFyh9U7-fill-6" offset="51%" stop-color="rgb(32,253,147)"/><stop id="e3qnAMFyh9U7-fill-7" offset="59%" stop-color="rgb(31,246,211)"/><stop id="e3qnAMFyh9U7-fill-8" offset="67%" stop-color="rgb(36,224,181)"/><stop id="e3qnAMFyh9U7-fill-9" offset="74.3535%" stop-color="rgb(46,182,178)"/><stop id="e3qnAMFyh9U7-fill-10" offset="83.6207%" stop-color="rgb(46,116,170)"/><stop id="e3qnAMFyh9U7-fill-11" offset="89.0427%" stop-color="rgb(54,61,159)"/><stop id="e3qnAMFyh9U7-fill-12" offset="94.9193%" stop-color="rgb(83,56,171)"/><stop id="e3qnAMFyh9U7-fill-13" offset="100%" stop-color="rgb(123,58,180)"/></linearGradient><linearGradient id="e3qnAMFyh9U9-fill" x1="-0.149779" y1="0.845813" x2="-0.045252" y2="0.089521" spreadMethod="pad" gradientUnits="objectBoundingBox" gradientTransform="matrix(1 0 0 1 0 0)"><stop id="e3qnAMFyh9U9-fill-0" offset="0%" stop-color="rgb(255,0,0)"/><stop id="e3qnAMFyh9U9-fill-1" offset="10.5061%" stop-color="rgb(255,0,0)"/><stop id="e3qnAMFyh9U9-fill-2" offset="17%" stop-color="rgb(253,102,35)"/><stop id="e3qnAMFyh9U9-fill-3" offset="24%" stop-color="rgb(248,253,49)"/><stop id="e3qnAMFyh9U9-fill-4" offset="34%" stop-color="rgb(164,253,43)"/><stop id="e3qnAMFyh9U9-fill-5" offset="42.0259%" stop-color="rgb(67,253,38)"/><stop id="e3qnAMFyh9U9-fill-6" offset="51%" stop-color="rgb(32,253,147)"/><stop id="e3qnAMFyh9U9-fill-7" offset="59%" stop-color="rgb(31,246,211)"/><stop id="e3qnAMFyh9U9-fill-8" offset="67%" stop-color="rgb(36,224,181)"/><stop id="e3qnAMFyh9U9-fill-9" offset="74.3535%" stop-color="rgb(46,182,178)"/><stop id="e3qnAMFyh9U9-fill-10" offset="83.6207%" stop-color="rgb(46,116,170)"/><stop id="e3qnAMFyh9U9-fill-11" offset="89.0427%" stop-color="rgb(54,61,159)"/><stop id="e3qnAMFyh9U9-fill-12" offset="94.9193%" stop-color="rgb(83,56,171)"/><stop id="e3qnAMFyh9U9-fill-13" offset="100%" stop-color="rgb(123,58,180)"/></linearGradient><linearGradient id="e3qnAMFyh9U11-fill" x1="0.07102" y1="0.861133" x2="0.203932" y2="0.167323" spreadMethod="pad" gradientUnits="objectBoundingBox" gradientTransform="matrix(1 0 0 1 0 0)"><stop id="e3qnAMFyh9U11-fill-0" offset="0%" stop-color="rgb(255,0,0)"/><stop id="e3qnAMFyh9U11-fill-1" offset="10.3886%" stop-color="rgb(255,0,0)"/><stop id="e3qnAMFyh9U11-fill-2" offset="17%" stop-color="rgb(253,102,35)"/><stop id="e3qnAMFyh9U11-fill-3" offset="24%" stop-color="rgb(248,253,49)"/><stop id="e3qnAMFyh9U11-fill-4" offset="34%" stop-color="rgb(164,253,43)"/><stop id="e3qnAMFyh9U11-fill-5" offset="42.0259%" stop-color="rgb(67,253,38)"/><stop id="e3qnAMFyh9U11-fill-6" offset="51%" stop-color="rgb(32,253,147)"/><stop id="e3qnAMFyh9U11-fill-7" offset="59%" stop-color="rgb(31,246,211)"/><stop id="e3qnAMFyh9U11-fill-8" offset="67%" stop-color="rgb(36,224,181)"/><stop id="e3qnAMFyh9U11-fill-9" offset="74.3535%" stop-color="rgb(46,182,178)"/><stop id="e3qnAMFyh9U11-fill-10" offset="83.6207%" stop-color="rgb(46,116,170)"/><stop id="e3qnAMFyh9U11-fill-11" offset="89.0427%" stop-color="rgb(54,61,159)"/><stop id="e3qnAMFyh9U11-fill-12" offset="94.9193%" stop-color="rgb(83,56,171)"/><stop id="e3qnAMFyh9U11-fill-13" offset="100%" stop-color="rgb(123,58,180)"/></linearGradient><linearGradient id="e3qnAMFyh9U13-fill" x1="0.07102" y1="0.861133" x2="0.203932" y2="0.167323" spreadMethod="pad" gradientUnits="objectBoundingBox" gradientTransform="matrix(1 0 0 1 0 0)"><stop id="e3qnAMFyh9U13-fill-0" offset="0%" stop-color="rgb(255,0,0)"/><stop id="e3qnAMFyh9U13-fill-1" offset="10.3886%" stop-color="rgb(255,0,0)"/><stop id="e3qnAMFyh9U13-fill-2" offset="17%" stop-color="rgb(253,102,35)"/><stop id="e3qnAMFyh9U13-fill-3" offset="24%" stop-color="rgb(248,253,49)"/><stop id="e3qnAMFyh9U13-fill-4" offset="34%" stop-color="rgb(164,253,43)"/><stop id="e3qnAMFyh9U13-fill-5" offset="42.0259%" stop-color="rgb(67,253,38)"/><stop id="e3qnAMFyh9U13-fill-6" offset="51%" stop-color="rgb(32,253,147)"/><stop id="e3qnAMFyh9U13-fill-7" offset="59%" stop-color="rgb(31,246,211)"/><stop id="e3qnAMFyh9U13-fill-8" offset="67%" stop-color="rgb(36,224,181)"/><stop id="e3qnAMFyh9U13-fill-9" offset="74.3535%" stop-color="rgb(46,182,178)"/><stop id="e3qnAMFyh9U13-fill-10" offset="83.6207%" stop-color="rgb(46,116,170)"/><stop id="e3qnAMFyh9U13-fill-11" offset="89.0427%" stop-color="rgb(54,61,159)"/><stop id="e3qnAMFyh9U13-fill-12" offset="94.9193%" stop-color="rgb(83,56,171)"/><stop id="e3qnAMFyh9U13-fill-13" offset="100%" stop-color="rgb(123,58,180)"/></linearGradient><linearGradient id="e3qnAMFyh9U15-fill" x1="0.07102" y1="0.861133" x2="0.203932" y2="0.167323" spreadMethod="pad" gradientUnits="objectBoundingBox" gradientTransform="matrix(1 0 0 1 0 0)"><stop id="e3qnAMFyh9U15-fill-0" offset="0%" stop-color="rgb(255,0,0)"/><stop id="e3qnAMFyh9U15-fill-1" offset="10.3886%" stop-color="rgb(255,0,0)"/><stop id="e3qnAMFyh9U15-fill-2" offset="17%" stop-color="rgb(253,102,35)"/><stop id="e3qnAMFyh9U15-fill-3" offset="24%" stop-color="rgb(248,253,49)"/><stop id="e3qnAMFyh9U15-fill-4" offset="34%" stop-color="rgb(164,253,43)"/><stop id="e3qnAMFyh9U15-fill-5" offset="42.0259%" stop-color="rgb(67,253,38)"/><stop id="e3qnAMFyh9U15-fill-6" offset="51%" stop-color="rgb(32,253,147)"/><stop id="e3qnAMFyh9U15-fill-7" offset="59%" stop-color="rgb(31,246,211)"/><stop id="e3qnAMFyh9U15-fill-8" offset="67%" stop-color="rgb(36,224,181)"/><stop id="e3qnAMFyh9U15-fill-9" offset="74.3535%" stop-color="rgb(46,182,178)"/><stop id="e3qnAMFyh9U15-fill-10" offset="83.6207%" stop-color="rgb(46,116,170)"/><stop id="e3qnAMFyh9U15-fill-11" offset="89.0427%" stop-color="rgb(54,61,159)"/><stop id="e3qnAMFyh9U15-fill-12" offset="94.9193%" stop-color="rgb(83,56,171)"/><stop id="e3qnAMFyh9U15-fill-13" offset="100%" stop-color="rgb(123,58,180)"/></linearGradient><filter id="e3qnAMFyh9U16-filter" x="-400%" width="600%" y="-400%" height="600%"><feGaussianBlur id="e3qnAMFyh9U16-filter-blur-0" stdDeviation="1,1" result="result"/></filter><filter id="e3qnAMFyh9U17-filter" x="-400%" width="600%" y="-400%" height="600%"><feGaussianBlur id="e3qnAMFyh9U17-filter-blur-0" stdDeviation="0,0" result="result"/></filter><filter id="e3qnAMFyh9U20-filter" x="-400%" width="600%" y="-400%" height="600%"><feGaussianBlur id="e3qnAMFyh9U20-filter-blur-0" stdDeviation="2,1" result="result"/></filter></defs><g id="e3qnAMFyh9U2" transform="matrix(-0.034899 -0.999391 0.999391 -0.034899 -0.158519 183.428175)"><ellipse id="e3qnAMFyh9U3" rx="38.5" ry="38.5" transform="matrix(1 0 0 1 90 90.591943)" fill="rgb(2,2,2)" stroke="none" stroke-width="0"/><g id="e3qnAMFyh9U4" transform="matrix(-0.325568 0.945519 -0.945519 -0.325568 205.905318 33.13484)"><path id="e3qnAMFyh9U5" d="M24.195932,31.906929L42.066928,17.984097L48.02946,14.007839L57.470139,8.291974L51.063373,18.404711L44.118579,30.076467L37.827985,40.86684L31.584015,53.13053L27.477196,63.000287L23.929959,73.01724L20.979125,81.842527L19.043735,89.55618L17.533795,97.259174L16.523542,105.360933L15.433245,113.958641L14.136806,101.006541L14.405171,91.256484L14.603909,80.840789L16.093215,70.117953L17.690581,58.31033L19.963608,46.485775L23.92905,32.048881" transform="matrix(-0.285317 -0.092705 0.092705 -0.285317 113.538685 136.683479)" fill="url(#e3qnAMFyh9U5-fill)" stroke="none" stroke-width="0.36"/></g><g id="e3qnAMFyh9U6" transform="matrix(0.615661 0.788011 -0.788011 0.615661 106.814752 -36.226824)"><path id="e3qnAMFyh9U7" d="M24.195932,31.906929L42.066928,17.984097L48.02946,14.007839L57.470139,8.291974L51.063373,18.404711L44.118579,30.076467L37.827985,40.86684L31.584015,53.13053L27.477196,63.000287L23.929959,73.01724L20.979125,81.842527L19.043735,89.55618L17.533795,97.259174L16.523542,105.360933L15.433245,113.958641L14.136806,101.006541L14.405171,91.256484L14.603909,80.840789L16.093215,70.117953L17.690581,58.31033L19.963608,46.485775L23.92905,32.048881" transform="matrix(-0.288379 -0.082691 0.082691 -0.288379 111.533074 136.820558)" fill="url(#e3qnAMFyh9U7-fill)" stroke="none" stroke-width="0.36"/></g><g id="e3qnAMFyh9U8" transform="matrix(0.990268 -0.139173 0.139173 0.990268 -11.639052 13.559474)"><path id="e3qnAMFyh9U9" d="M24.195932,31.906929L42.066928,17.984097L48.02946,14.007839L57.470139,8.291974L51.063373,18.404711L44.118579,30.076467L37.827985,40.86684L31.584015,53.13053L27.477196,63.000287L23.929959,73.01724L20.979125,81.842527L19.043735,89.55618L17.533795,97.259174L16.523542,105.360933L15.433245,113.958641L14.136806,101.006541L14.405171,91.256484L14.603909,80.840789L16.093215,70.117953L17.690581,58.31033L19.963608,46.485775L23.92905,32.048881" transform="matrix(-0.285317 -0.092705 0.092705 -0.285317 110.76954 136.584218)" fill="url(#e3qnAMFyh9U9-fill)" stroke="none" stroke-width="0.36"/></g><g id="e3qnAMFyh9U10" transform="matrix(0.241922 -0.970296 0.970296 0.241922 -19.403767 155.955099)"><path id="e3qnAMFyh9U11" d="M24.195932,31.906929L42.066928,17.984097L48.02946,14.007839L57.470139,8.291974L51.063373,18.404711L44.118579,30.076467L37.827985,40.86684L31.584015,53.13053L27.477196,63.000287L23.929959,73.01724L20.979125,81.842527L19.043735,89.55618L17.533795,97.259174L16.523542,105.360933L15.433245,113.958641L14.136806,101.006541L14.405171,91.256484L14.603909,80.840789L16.093215,70.117953L17.690581,58.31033L19.963608,46.485775L23.92905,32.048881" transform="matrix(-0.267302 -0.136197 0.136197 -0.267302 103.602843 139.044133)" fill="url(#e3qnAMFyh9U11-fill)" stroke="none" stroke-width="0.36"/></g><g id="e3qnAMFyh9U12" transform="matrix(0 -1 1 0 -0.029628 147.135233)"><path id="e3qnAMFyh9U13" d="M24.195932,31.906929L42.066928,17.984097L48.02946,14.007839L57.470139,8.291974L51.063373,18.404711L44.118579,30.076467L37.827985,40.86684L31.584015,53.13053L27.477196,63.000287L23.929959,73.01724L20.979125,81.842527L19.043735,89.55618L17.533795,97.259174L16.523542,105.360933L15.433245,113.958641L14.136806,101.006541L14.405171,91.256484L14.603909,80.840789L16.093215,70.117953L17.690581,58.31033L19.963608,46.485775L23.92905,32.048881" transform="matrix(-0.281908 0.102606 -0.102606 -0.281908 101.492326 113.435064)" fill="url(#e3qnAMFyh9U13-fill)" stroke="none" stroke-width="0.36"/></g><g id="e3qnAMFyh9U14" transform="matrix(-0.224951 -0.97437 0.97437 -0.224951 -13.195104 165.045676)"><path id="e3qnAMFyh9U15" d="M24.195932,31.906929L42.066928,17.984097L48.02946,14.007839L57.470139,8.291974L51.063373,18.404711L44.118579,30.076467L37.827985,40.86684L31.584015,53.13053L27.477196,63.000287L23.929959,73.01724L20.979125,81.842527L19.043735,89.55618L17.533795,97.259174L16.523542,105.360933L15.433245,113.958641L14.136806,101.006541L14.405171,91.256484L14.603909,80.840789L16.093215,70.117953L17.690581,58.31033L19.963608,46.485775L23.92905,32.048881" transform="matrix(-0.112382 0.278155 -0.278155 -0.112382 96.759964 99.422155)" fill="url(#e3qnAMFyh9U15-fill)" stroke="none" stroke-width="0.36"/></g></g><g id="e3qnAMFyh9U18" transform="matrix(1 0 0 1 -1.445831 0)"><polygon id="e3qnAMFyh9U19" points="-7.088457,-18.004145 -5.983923,-8.831036 1.407955,-3.287928 -7.088457,-6.917928 -15.584869,-3.287928 -8.192991,-8.831036 -7.088457,-18.004145" transform="matrix(1 0 0 1 96.588457 100.645)" fill="rgb(255,255,255)" stroke="none" stroke-width="0"/><polygon id="e3qnAMFyh9U20" points="-7.454247,-17.993326 -6.415016,-9.390525 1.545753,-12.790826 -5.375786,-7.588326 1.545753,-2.385826 -6.415016,-5.786127 -7.454247,2.816674 -8.493478,-5.786127 -16.454247,-2.385826 -9.532708,-7.588326 -16.454247,-12.790826 -8.493478,-9.390525 -7.454247,-17.993326" transform="matrix(0.515038 0.857167 -0.857167 0.515038 87.334757 102.37129)" filter="url(#e3qnAMFyh9U20-filter)" fill="rgb(253,253,253)" stroke="none" stroke-width="0"/></g></svg>